<?xml version="1.0" encoding="UTF-8"?>
<svg width="115" height="33" viewBox="0 0 115 33" fill="none" xmlns="http://www.w3.org/2000/svg">
<path fill-rule="evenodd" clip-rule="evenodd" d="M111.967 28.9537C109.319 31.7271 106.38 32.575 102.986 32.575C99.3628 32.575 96.684 31.365 94.495 29.2187C91.322 26.0434 91.2734 22.4663 91.2734 16.3852C91.2734 10.304 91.322 6.72248 94.495 3.55164C96.7016 1.40094 99.3495 0.195312 102.986 0.195312C110.404 0.195312 114.112 5.02666 114.963 10.3924H108.697C107.982 7.34959 106.15 5.74208 102.959 5.74208C101.453 5.7113 100.006 6.33072 98.9876 7.44233C97.827 8.76719 97.4695 10.304 97.4695 16.3852C97.4695 22.4663 97.8358 24.0385 98.9965 25.3633C100.019 26.4635 101.467 27.0673 102.968 27.0194C104.888 27.0194 106.406 26.3482 107.381 25.2529C108.378 24.0687 108.889 22.5507 108.811 21.0045V19.8254H102.973V14.5922H114.999V19.2425C114.999 23.8486 114.284 26.5336 111.958 28.9581L111.967 28.9537ZM50.2251 32.3012H36.9062V0.460289H49.7044C55.9181 0.460289 59.5369 3.9491 59.5369 9.40313C59.5574 12.1582 58.0406 14.6947 55.6048 15.9789C57.5245 16.8621 59.9826 18.8848 59.9826 23.1332C59.9826 29.0818 55.9181 32.3012 50.2428 32.3012H50.2251ZM49.191 6.00705H43.1141V13.3424H49.191C51.8389 13.3424 53.3041 11.863 53.3041 9.67252C53.3041 7.48207 51.8301 6.00705 49.191 6.00705ZM43.1141 18.9289H49.597C52.4303 18.9289 53.7542 20.6512 53.7542 22.8196C53.7542 24.988 52.4126 26.7544 49.597 26.7544H43.1141V18.9289ZM81.5186 32.3012L75.3048 19.6223H70.8387V32.3012H64.625V0.460289H77.0966C83.5751 0.460289 87.4189 4.87651 87.4189 10.2069C87.5262 13.968 85.1711 17.3598 81.6112 18.5712L88.7164 32.3012H81.5186ZM70.8359 6.00706H76.701V5.98939C79.4239 5.98939 81.2157 7.7338 81.2157 10.1936C81.2157 12.6535 79.4239 14.3979 76.701 14.3979H70.8359V6.00706ZM7.09232 8.54652C6.69088 8.95572 6.47182 9.50995 6.48493 10.0832C6.49036 10.9578 7.02244 11.7428 7.83249 12.0713C8.64255 12.3997 9.5706 12.2068 10.1829 11.5827C10.7952 10.9585 10.9708 10.0264 10.6277 9.22202C10.2846 8.4176 9.49045 7.89973 8.61648 7.91045C8.04346 7.90791 7.49375 8.13732 7.09232 8.54652Z" fill="#1B2944"/>
<path d="M24.1037 10.0963C24.1216 10.9605 23.7812 11.7936 23.1634 12.3977C22.5455 13.0017 21.7053 13.3229 20.8424 13.2849C19.1011 13.2205 17.7227 11.7892 17.7227 10.0456C17.7227 8.30188 19.1011 6.87062 20.8424 6.80627C21.7198 6.77854 22.5692 7.11731 23.187 7.7414C23.8048 8.36549 24.1353 9.21863 24.0993 10.0963" fill="#22BCE7"/>
<path fill-rule="evenodd" clip-rule="evenodd" d="M14.7248 18.9636C14.0323 18.9754 13.3659 18.6995 12.8842 18.2016C12.4025 17.7036 12.1485 17.0281 12.1828 16.3359C12.1973 15.2864 12.8428 14.3492 13.8178 13.9621C14.7928 13.575 15.9048 13.8145 16.6344 14.5686C17.3639 15.3228 17.567 16.4428 17.1488 17.4053C16.7306 18.3679 15.7735 18.9831 14.7248 18.9636ZM2.51803 18.0816C2.06165 18.0863 1.62246 17.9076 1.29891 17.5855C0.975361 17.2633 0.794509 16.8248 0.796898 16.3681C0.796898 15.4144 1.56945 14.6413 2.52244 14.6413C3.47543 14.6413 4.24799 15.4144 4.24799 16.3681C4.254 16.8286 4.07353 17.272 3.74766 17.5973C3.42178 17.9225 2.97824 18.102 2.51803 18.0948V18.0816ZM7.08242 21.1871C6.68334 21.6031 6.46958 22.1631 6.48987 22.7394L6.47663 22.7218C6.48388 23.8961 7.43468 24.8456 8.60818 24.8504C9.80003 24.8504 10.7662 23.8835 10.7662 22.6909C10.7662 21.4982 9.80003 20.5313 8.60818 20.5313C8.03192 20.5346 7.48151 20.7711 7.08242 21.1871Z" fill="#1B2944"/>
<path fill-rule="evenodd" clip-rule="evenodd" d="M12.3379 6.00073C12.9392 6.62085 13.7704 6.96389 14.6337 6.94822V6.94381C15.4931 6.96392 16.325 6.63997 16.9448 6.04383C17.5645 5.44768 17.9209 4.62867 17.9348 3.76854C17.9569 1.97116 16.5224 0.494263 14.7264 0.465211C13.8663 0.452219 13.0368 0.78445 12.4232 1.38771C11.8096 1.99097 11.4629 2.81501 11.4607 3.6758C11.419 4.53886 11.7366 5.38061 12.3379 6.00073ZM23.191 25.028C23.7976 24.4135 24.127 23.5776 24.1028 22.7141H24.1117C24.1402 21.8507 23.81 21.014 23.1995 20.4031C22.589 19.7922 21.7529 19.4617 20.89 19.4903C19.7051 19.4465 18.5909 20.0541 17.9854 21.0744C17.3799 22.0947 17.3799 23.3645 17.9854 24.3847C18.5909 25.405 19.7051 26.0127 20.89 25.9689C21.7532 25.9825 22.5844 25.6426 23.191 25.028ZM27.0259 19.6228C25.7145 19.6299 24.5282 18.8452 24.0211 17.635C23.5139 16.4249 23.7858 15.0281 24.7099 14.0971C25.634 13.166 27.0279 12.8843 28.2406 13.3836C29.4534 13.8829 30.2457 15.0646 30.2475 16.3768C30.2523 18.1629 28.8107 19.6155 27.0259 19.6228ZM17.1103 26.7105C16.4952 26.0932 15.6481 25.7645 14.7779 25.8055C13.9087 25.7611 13.0611 26.0857 12.4435 26.6994C11.826 27.3132 11.4958 28.1592 11.5343 29.0293C11.505 29.8978 11.8341 30.74 12.4443 31.3582C13.0546 31.9764 13.8921 32.316 14.7603 32.2973C15.6283 32.3194 16.4673 31.984 17.0813 31.3696C17.6953 30.7552 18.0304 29.9156 18.0084 29.047C18.0516 28.1763 17.7255 27.3278 17.1103 26.7105Z" fill="#22BCE7"/>
</svg>